<svg xmlns="http://www.w3.org/2000/svg" version="1.1" xmlns:xlink="http://www.w3.org/1999/xlink" xmlns:svgjs="http://svgjs.dev/svgjs" width="1000" height="1000" viewBox="0 0 1000 1000"><rect width="1000" height="1000" fill="#000000"></rect><g transform="matrix(0.7,0,0,0.7,149.57575757575756,282.1265587044535)"><svg viewBox="0 0 396 247" data-background-color="#7c4e29" preserveAspectRatio="xMidYMid meet" height="623" width="1000" xmlns="http://www.w3.org/2000/svg" xmlns:xlink="http://www.w3.org/1999/xlink"><g id="tight-bounds" transform="matrix(1,0,0,1,0.2400000000000091,-0.09999999999999432)"><svg viewBox="0 0 395.52 247.2" height="247.2" width="395.52"><g><svg></svg></g><g><svg viewBox="0 0 395.52 247.2" height="247.2" width="395.52"><g transform="matrix(1,0,0,1,100.59169034025966,47.215199999999996)"><svg viewBox="0 0 194.33661931948066 152.7696" height="152.7696" width="194.33661931948066"><g><svg viewBox="0 0 194.33661931948066 152.7696" height="152.7696" width="194.33661931948066"><g><svg viewBox="0 0 244.43135999999996 192.14948384621198" height="152.7696" width="194.33661931948066"><g><svg viewBox="0 0 244.43135999999996 192.14948384621198" height="192.14948384621198" width="244.43135999999996"><g id="textblocktransform"><svg viewBox="0 0 244.43135999999996 192.14948384621198" height="192.14948384621198" width="244.43135999999996" id="textblock"><g><svg viewBox="0 0 244.43135999999996 137.82199402985074" height="137.82199402985074" width="244.43135999999996"><g transform="matrix(1,0,0,1,0,0)"><svg width="244.43135999999996" viewBox="1.9500000476837158 -33.5 60.29999923706055 34" height="137.82199402985074" data-palette-color="#ffffff"><path d="M13.8 0.5L13.8 0.5Q10.35 0.5 7.6-0.23 4.85-0.95 2.45-2.2L2.45-2.2 1.95-10.85 2.9-10.85 7.3-4.05Q8.35-3.25 9.78-2.73 11.2-2.2 12.75-2.2L12.75-2.2Q15.3-2.2 17.03-3.3 18.75-4.4 18.75-6.8L18.75-6.8Q18.75-8.2 18.13-9.18 17.5-10.15 15.7-11.13 13.9-12.1 10.35-13.6L10.35-13.6Q6.8-15.05 4.9-17.38 3-19.7 3-22.75L3-22.75Q3-25 4.15-26.98 5.3-28.95 7.2-30.4 9.1-31.85 11.48-32.68 13.85-33.5 16.3-33.5L16.3-33.5Q19-33.5 21.6-32.85 24.2-32.2 26.2-31.1L26.2-31.1 26.7-23.1 25.8-23.1 21.65-28.95Q20.5-29.8 19.33-30.28 18.15-30.75 16.7-30.75L16.7-30.75Q14.75-30.75 13.48-29.58 12.2-28.4 12.2-26.35L12.2-26.35Q12.2-25.2 12.8-24.25 13.4-23.3 14.85-22.4 16.3-21.5 18.9-20.35L18.9-20.35Q23.5-18.35 25.63-16 27.75-13.65 27.75-10.15L27.75-10.15Q27.75-6.85 25.83-4.48 23.9-2.1 20.7-0.8 17.5 0.5 13.8 0.5ZM49.85 0.5L49.85 0.5Q45.85 0.5 42.52-0.75 39.2-2 36.77-4.25 34.35-6.5 33.02-9.47 31.7-12.45 31.7-15.95L31.7-15.95Q31.7-19.8 33.3-23 34.9-26.2 37.6-28.55 40.3-30.9 43.7-32.2 47.1-33.5 50.7-33.5L50.7-33.5Q53.4-33.5 55.17-33.2 56.95-32.9 58.32-32.35 59.7-31.8 61.15-31.1L61.15-31.1 61.9-21.4 61-21.4 55.1-30.2Q54.25-30.6 53.35-30.8 52.45-31 51.15-31L51.15-31Q48.45-31 46.3-29.15 44.15-27.3 42.9-23.9 41.65-20.5 41.65-15.8L41.65-15.8Q41.65-11.65 42.85-8.6 44.05-5.55 46.15-3.9 48.25-2.25 50.95-2.25L50.95-2.25Q52.2-2.25 53.4-2.5 54.6-2.75 55.8-3.4L55.8-3.4 61.35-10.95 62.25-10.95 61.4-2.2Q59.5-0.9 56.32-0.2 53.15 0.5 49.85 0.5Z" opacity="1" transform="matrix(1,0,0,1,0,0)" fill="#ffffff" class="wordmark-text-0" data-fill-palette-color="primary" id="text-0"></path></svg></g></svg></g><g transform="matrix(1,0,0,1,0,170.3584590924418)"><svg viewBox="0 0 244.43135999999996 21.791024753770184" height="21.791024753770184" width="244.43135999999996"><g transform="matrix(1,0,0,1,0,0)"><svg width="244.43135999999996" viewBox="1.2999999523162842 -32.79999923706055 374.6200256347656 33.39999771118164" height="21.791024753770184" data-palette-color="#ffffff"><path d="M11.05 0.6Q8.6 0.6 6.55 0.15 4.5-0.3 3.15-0.83 1.8-1.35 1.8-1.4L1.8-1.4 1.3-2.2Q1.35-2.55 1.55-3.75 1.75-4.95 1.98-6.93 2.2-8.9 2.25-10.6L2.25-10.6 7.3-10.95Q7.3-7.45 8.45-6.1 9.6-4.75 12.35-4.75L12.35-4.75Q14.35-4.75 15.55-5.58 16.75-6.4 16.75-7.85L16.75-7.85Q16.75-9.35 15.33-10.35 13.9-11.35 10.9-12.7L10.9-12.7Q10.5-12.9 10.13-13.08 9.75-13.25 9.45-13.4L9.45-13.4Q5.85-15.1 3.75-17.15 1.65-19.2 1.65-22.5L1.65-22.5Q1.65-25.5 3.45-27.85 5.25-30.2 8.47-31.5 11.7-32.8 15.85-32.8L15.85-32.8Q18.15-32.8 20.15-32.5 22.15-32.2 23.35-31.88 24.55-31.55 24.85-31.45L24.85-31.45 25.3-30.6Q25.25-30.3 25.03-29.15 24.8-28 24.5-25.98 24.2-23.95 24.05-21.95L24.05-21.95 19.4-21.6 18.9-22 18.95-23.35Q18.95-25.35 17.9-26.25 16.85-27.15 14.6-27.15L14.6-27.15Q12.8-27.15 11.65-26.33 10.5-25.5 10.5-24.15L10.5-24.15Q10.5-23.05 11.35-22.2 12.2-21.35 13.35-20.73 14.5-20.1 16.95-19L16.95-19Q19.65-17.8 21.45-16.7 23.25-15.6 24.48-13.85 25.7-12.1 25.7-9.65L25.7-9.65Q25.7-6.55 23.9-4.23 22.1-1.9 18.8-0.65 15.5 0.6 11.05 0.6L11.05 0.6ZM28.6 0.35L28.95-3Q30.55-3.25 31.12-3.95 31.7-4.65 31.7-6.25L31.7-6.25 31.7-19.8Q31.7-21 31.45-21.45 31.2-21.9 30.55-21.9L30.55-21.9 29.1-21.85 28.75-22.25 29.15-25.15 34.8-25.1Q36.65-25.1 38.82-25.2 41-25.3 41.85-25.35L41.85-25.35Q48-25.35 50.35-22.98 52.7-20.6 52.7-17.4L52.7-17.4Q52.7-15 51.3-12.9 49.9-10.8 47.52-9.55 45.15-8.3 42.5-8.3L42.5-8.3 38.95-8.3 38.9-6.15Q38.9-4.4 39.3-3.8 39.7-3.2 40.95-3.2L40.95-3.2Q41.45-3.2 41.9-3.25 42.35-3.3 42.5-3.3L42.5-3.3 42.65-3 42.25 0.15Q41.5 0.15 39.6 0.08 37.7 0 36.05 0L36.05 0Q34.8 0 32.15 0.15 29.5 0.3 28.6 0.35L28.6 0.35ZM42.15-12.3Q43.6-12.7 44.3-13.85 45-15 45-16.95L45-16.95Q45-19 43.85-19.93 42.7-20.85 40.15-20.85L40.15-20.85Q39.7-20.85 39.57-20.7 39.45-20.55 39.4-20.05L39.4-20.05Q39.1-15.95 39.05-12.75L39.05-12.75 42.15-12.3ZM54 0.4L54.4-2.95Q56-3.2 56.57-3.93 57.15-4.65 57.15-6.35L57.15-6.35 57.2-19.8Q57.2-21.05 56.95-21.48 56.7-21.9 56-21.9L56-21.9 54.85-21.85 54.45-22.35 54.8-25.2Q55.7-25.2 58.27-25.15 60.85-25.1 63.75-25.1L63.75-25.1Q72.2-25.1 76.5-25.55L76.5-25.55 76.95-25.05Q76.8-24.4 76.45-22.08 76.09-19.75 76-17.45L76-17.45 70.9-17.1Q70.9-17.25 70.95-17.7 71-18.15 71-18.6L71-18.6Q71-19.55 70.67-20 70.34-20.45 69.45-20.63 68.55-20.8 66.59-20.8L66.59-20.8Q65.5-20.8 65.2-20.6 64.9-20.4 64.9-19.7L64.9-19.7 64.65-14.85 68.2-14.85Q69.45-14.85 70.84-14.95 72.25-15.05 72.8-15.1L72.8-15.1 73.25-14.6 72.65-10.4Q72.15-10.4 70.67-10.45 69.2-10.5 67.59-10.5L67.59-10.5Q66.7-10.5 65.75-10.4 64.8-10.3 64.45-10.3L64.45-10.3Q64.4-8.6 64.4-6.45L64.4-6.45Q64.4-5.35 64.55-4.9 64.7-4.45 65.15-4.28 65.59-4.1 66.59-4.1L66.59-4.1Q68.7-4.1 69.7-4.4 70.7-4.7 71.17-5.55 71.65-6.4 71.95-8.3L71.95-8.3 76.65-8.65 77.05-8.1Q76.9-7.45 76.52-5.15 76.15-2.85 75.95-0.3L75.95-0.3 75.34 0.25Q74.15 0.2 70.05 0.1 65.95 0 62.25 0L62.25 0Q59.7 0 57.2 0.18 54.7 0.35 54 0.4L54 0.4ZM99.99-12L99.84-20.25Q99.79-21.25 99.52-21.6 99.24-21.95 98.49-21.95L98.49-21.95 97.19-21.95 96.99-22.3 97.24-25.25Q97.94-25.25 99.82-25.18 101.69-25.1 103.54-25.1L103.54-25.1Q105.34-25.1 106.92-25.15 108.49-25.2 109.04-25.25L109.04-25.25 108.84-22Q107.49-21.8 106.94-21.25 106.39-20.7 106.34-19.55L106.34-19.55 105.79 0.1 99.19 0.6Q95.89-4.25 93.09-8.22 90.29-12.2 89.49-13.25L89.49-13.25 88.94-13.25 89.04-5.05Q89.04-3.95 89.37-3.55 89.69-3.15 90.59-3.15L90.59-3.15Q90.99-3.15 91.47-3.2 91.94-3.25 92.09-3.25L92.09-3.25 92.44-2.95 91.99 0.15Q91.29 0.15 89.47 0.08 87.64 0 85.94 0L85.94 0Q84.34 0 82.47 0.13 80.59 0.25 80.04 0.3L80.04 0.3 80.44-2.95Q81.64-3.1 82.19-3.68 82.74-4.25 82.79-5.4L82.79-5.4 83.29-19.45Q83.29-20.75 82.69-21.2 82.09-21.65 80.09-21.9L80.09-21.9 79.69-22.4 79.94-25.3Q80.44-25.25 82.19-25.18 83.94-25.1 85.64-25.1L85.64-25.1Q87.24-25.1 88.64-25.15 90.04-25.2 90.49-25.25L90.49-25.25Q93.14-21 95.89-17.05 98.64-13.1 99.44-12L99.44-12 99.99-12ZM123.14 0.4Q117.34 0.4 114.12-2.88 110.89-6.15 110.89-12.05L110.89-12.05Q110.89-18.5 114.69-22.03 118.49-25.55 125.39-25.55L125.39-25.55Q126.99-25.55 128.87-25.33 130.74-25.1 132.09-24.88 133.44-24.65 133.84-24.55L133.84-24.55 134.14-23.85Q134.09-23.55 133.87-22.48 133.64-21.4 133.39-19.63 133.14-17.85 132.99-15.8L132.99-15.8 127.39-15.5Q127.39-15.65 127.42-16.25 127.44-16.85 127.44-17.65L127.44-17.65Q127.44-19.25 126.67-19.93 125.89-20.6 124.04-20.6L124.04-20.6Q121.49-20.6 120.42-18.98 119.34-17.35 119.34-13.4L119.34-13.4Q119.34-4.6 124.29-4.6L124.29-4.6Q126.09-4.6 126.99-5.68 127.89-6.75 128.24-9.3L128.24-9.3 133.79-9.7Q133.69-8.95 133.47-6.43 133.24-3.9 133.19-1.65L133.19-1.65 132.69-1.05Q132.34-0.95 131.04-0.6 129.74-0.25 127.62 0.08 125.49 0.4 123.14 0.4L123.14 0.4ZM136.84 0.4L137.24-2.95Q138.84-3.2 139.41-3.93 139.99-4.65 139.99-6.35L139.99-6.35 140.04-19.8Q140.04-21.05 139.79-21.48 139.54-21.9 138.84-21.9L138.84-21.9 137.69-21.85 137.29-22.35 137.64-25.2Q138.54-25.2 141.11-25.15 143.69-25.1 146.59-25.1L146.59-25.1Q155.04-25.1 159.34-25.55L159.34-25.55 159.79-25.05Q159.64-24.4 159.29-22.08 158.94-19.75 158.84-17.45L158.84-17.45 153.74-17.1Q153.74-17.25 153.79-17.7 153.84-18.15 153.84-18.6L153.84-18.6Q153.84-19.55 153.51-20 153.19-20.45 152.29-20.63 151.39-20.8 149.44-20.8L149.44-20.8Q148.34-20.8 148.04-20.6 147.74-20.4 147.74-19.7L147.74-19.7 147.49-14.85 151.04-14.85Q152.29-14.85 153.69-14.95 155.09-15.05 155.64-15.1L155.64-15.1 156.09-14.6 155.49-10.4Q154.99-10.4 153.51-10.45 152.04-10.5 150.44-10.5L150.44-10.5Q149.54-10.5 148.59-10.4 147.64-10.3 147.29-10.3L147.29-10.3Q147.24-8.6 147.24-6.45L147.24-6.45Q147.24-5.35 147.39-4.9 147.54-4.45 147.99-4.28 148.44-4.1 149.44-4.1L149.44-4.1Q151.54-4.1 152.54-4.4 153.54-4.7 154.01-5.55 154.49-6.4 154.79-8.3L154.79-8.3 159.49-8.65 159.89-8.1Q159.74-7.45 159.36-5.15 158.99-2.85 158.79-0.3L158.79-0.3 158.19 0.25Q156.99 0.2 152.89 0.1 148.79 0 145.09 0L145.09 0Q142.54 0 140.04 0.18 137.54 0.35 136.84 0.4L136.84 0.4ZM183.04 0.6Q181.39 0.6 180.29-0.23 179.19-1.05 178.39-2.95L178.39-2.95 175.49-9.1 172.99-9.1 172.94-6Q172.94-4.75 173.14-4.2 173.34-3.65 173.91-3.45 174.49-3.25 175.89-3.2L175.89-3.2 176.09-2.9 175.69 0.15Q174.94 0.15 173.01 0.08 171.09 0 169.34 0L169.34 0Q167.54 0 165.39 0.15 163.24 0.3 162.59 0.35L162.59 0.35 162.94-3Q164.54-3.25 165.14-3.95 165.74-4.65 165.74-6.25L165.74-6.25 165.74-20.15Q165.74-21.15 165.49-21.53 165.24-21.9 164.59-21.9L164.59-21.9 163.14-21.85 162.79-22.25 163.19-25.15 168.84-25.1Q170.79-25.1 172.99-25.2 175.19-25.3 176.04-25.35L176.04-25.35Q181.44-25.35 184.19-23.55 186.94-21.75 186.94-18.2L186.94-18.2Q186.94-15.9 185.61-14.03 184.29-12.15 181.79-10.8L181.79-10.8 184.69-6.4Q186.89-3 188.89-3L188.89-3 189.29-2.45 188.94 0.2 183.04 0.6ZM176.44-13.25Q177.79-13.8 178.54-14.75 179.29-15.7 179.29-17.4L179.29-17.4Q179.29-19.2 178.04-20.05 176.79-20.9 174.14-20.9L174.14-20.9Q173.74-20.9 173.59-20.73 173.44-20.55 173.44-20L173.44-20Q173.14-16.7 173.14-13.65L173.14-13.65 176.44-13.25ZM213.58 0.55Q208.98 0.55 205.66-1.35 202.33-3.25 200.56-6.83 198.78-10.4 198.78-15.35L198.78-15.35Q198.78-20.75 200.88-24.68 202.98-28.6 206.91-30.7 210.83-32.8 216.28-32.8L216.28-32.8Q218.18-32.8 220.38-32.52 222.58-32.25 224.18-31.95 225.78-31.65 226.23-31.55L226.23-31.55 226.58-30.75Q226.48-30.4 226.23-29.05 225.98-27.7 225.68-25.48 225.38-23.25 225.23-20.75L225.23-20.75 219.13-20.4Q219.13-20.6 219.18-21.35 219.23-22.1 219.23-23.1L219.23-23.1Q219.23-25.2 218.13-26.15 217.03-27.1 214.63-27.1L214.63-27.1Q211.23-27.1 209.66-24.73 208.08-22.35 208.08-17.1L208.08-17.1Q208.08-11.2 209.83-8.15 211.58-5.1 214.93-5.1L214.93-5.1Q217.28-5.1 218.53-6.6 219.78-8.1 220.23-11.55L220.23-11.55 226.33-11.95Q226.18-11.05 225.86-7.95 225.53-4.85 225.48-2.05L225.48-2.05 224.93-1.35Q224.93-1.3 223.18-0.8 221.43-0.3 218.91 0.13 216.38 0.55 213.58 0.55L213.58 0.55ZM241.33 0.45Q235.48 0.45 232.3-2.8 229.13-6.05 229.13-12.05L229.13-12.05Q229.13-18.5 232.68-22.03 236.23-25.55 242.68-25.55L242.68-25.55Q248.63-25.55 251.75-22.43 254.88-19.3 254.88-13.25L254.88-13.25Q254.88-6.8 251.28-3.18 247.68 0.45 241.33 0.45L241.33 0.45ZM242.18-4.05Q244.33-4.05 245.38-5.7 246.43-7.35 246.43-10.9L246.43-10.9Q246.43-16.1 245.3-18.38 244.18-20.65 241.73-20.65L241.73-20.65Q239.63-20.65 238.63-19.03 237.63-17.4 237.63-13.85L237.63-13.85Q237.63-8.65 238.7-6.35 239.78-4.05 242.18-4.05L242.18-4.05ZM269.28 0.45Q264.08 0.45 261.68-1.55 259.28-3.55 259.28-7.8L259.28-7.8 259.28-19.8Q259.28-21.1 259.05-21.5 258.83-21.9 258.03-21.9L258.03-21.9 256.83-21.85 256.73-22 257.13-25.2Q257.78-25.2 259.73-25.15 261.68-25.1 263.98-25.1L263.98-25.1Q265.53-25.1 267.13-25.18 268.73-25.25 269.33-25.3L269.33-25.3 268.93-21.9Q267.83-21.85 267.38-21.4 266.93-20.95 266.83-20L266.83-20 266.58-8.7Q266.58-6.55 267.58-5.33 268.58-4.1 270.43-4.1L270.43-4.1Q272.28-4.1 273.18-5.03 274.08-5.95 274.08-7.95L274.08-7.95 273.98-19.8Q273.98-21.05 273.75-21.48 273.53-21.9 272.88-21.9L272.88-21.9 271.73-21.85 271.63-22 272.08-25.2Q272.63-25.2 274.1-25.15 275.58-25.1 276.98-25.1L276.98-25.1Q278.88-25.1 280.45-25.15 282.03-25.2 282.58-25.25L282.58-25.25 282.28-22Q280.93-21.6 280.53-21.3 280.13-21 280.13-20.2L280.13-20.2 280.13-8.95Q280.13-4.35 277.38-1.95 274.63 0.45 269.28 0.45L269.28 0.45ZM292.77 0.45Q290.67 0.45 288.92 0.1 287.17-0.25 286.15-0.63 285.12-1 284.87-1.15L284.87-1.15 284.42-1.8Q284.57-2.45 284.9-4.5 285.22-6.55 285.27-8.25L285.27-8.25 289.87-8.6Q289.87-6.25 290.8-5.25 291.72-4.25 293.77-4.25L293.77-4.25Q295.32-4.25 296.2-4.78 297.07-5.3 297.07-6.2L297.07-6.2Q297.07-7.25 296-7.95 294.92-8.65 292.57-9.6L292.57-9.6 291.12-10.2Q288.12-11.5 286.42-13.13 284.72-14.75 284.72-17.4L284.72-17.4Q284.72-19.8 286.25-21.65 287.77-23.5 290.52-24.53 293.27-25.55 296.87-25.55L296.87-25.55Q298.82-25.55 300.52-25.33 302.22-25.1 303.22-24.85 304.22-24.6 304.47-24.5L304.47-24.5 304.92-23.75Q304.77-23.2 304.4-21.2 304.02-19.2 303.82-17L303.82-17 299.62-16.7 299.12-17 299.17-17.8Q299.17-20.65 295.82-20.65L295.82-20.65Q294.47-20.65 293.6-20.1 292.72-19.55 292.72-18.65L292.72-18.65Q292.72-17.5 293.95-16.8 295.17-16.1 298.02-14.95L298.02-14.95Q301.37-13.55 303.27-11.98 305.17-10.4 305.17-7.6L305.17-7.6Q305.17-3.9 301.85-1.73 298.52 0.45 292.77 0.45L292.77 0.45ZM307.97 0.25L308.27-2.9Q309.97-3.25 310.52-3.88 311.07-4.5 311.07-6.1L311.07-6.1 311.07-19.9Q311.07-21.1 310.77-21.5 310.47-21.9 309.62-21.9L309.62-21.9 308.42-21.9 308.07-22.35 308.42-25.15 314.77-25.1Q316.57-25.1 318.62-25.18 320.67-25.25 321.47-25.3L321.47-25.3 321.22-22.05Q319.72-21.85 319.27-21.48 318.82-21.1 318.72-20L318.72-20Q318.27-13 318.27-5.85L318.27-5.85Q318.27-4.25 318.57-3.7 318.87-3.15 319.72-3.15L319.72-3.15Q320.27-3.15 320.67-3.2 321.07-3.25 321.17-3.3L321.17-3.3 321.47-2.9 321.12 0.15Q320.32 0.15 318.27 0.08 316.22 0 314.42 0L314.42 0Q312.87 0 310.75 0.1 308.62 0.2 307.97 0.25L307.97 0.25ZM344.22-12L344.07-20.25Q344.02-21.25 343.74-21.6 343.47-21.95 342.72-21.95L342.72-21.95 341.42-21.95 341.22-22.3 341.47-25.25Q342.17-25.25 344.04-25.18 345.92-25.1 347.77-25.1L347.77-25.1Q349.57-25.1 351.14-25.15 352.72-25.2 353.27-25.25L353.27-25.25 353.07-22Q351.72-21.8 351.17-21.25 350.62-20.7 350.57-19.55L350.57-19.55 350.02 0.1 343.42 0.6Q340.12-4.25 337.32-8.22 334.52-12.2 333.72-13.25L333.72-13.25 333.17-13.25 333.27-5.05Q333.27-3.95 333.59-3.55 333.92-3.15 334.82-3.15L334.82-3.15Q335.22-3.15 335.69-3.2 336.17-3.25 336.32-3.25L336.32-3.25 336.67-2.95 336.22 0.15Q335.52 0.15 333.69 0.08 331.87 0 330.17 0L330.17 0Q328.57 0 326.69 0.13 324.82 0.25 324.27 0.3L324.27 0.3 324.67-2.95Q325.87-3.1 326.42-3.68 326.97-4.25 327.02-5.4L327.02-5.4 327.52-19.45Q327.52-20.75 326.92-21.2 326.32-21.65 324.32-21.9L324.32-21.9 323.92-22.4 324.17-25.3Q324.67-25.25 326.42-25.18 328.17-25.1 329.87-25.1L329.87-25.1Q331.47-25.1 332.87-25.15 334.27-25.2 334.72-25.25L334.72-25.25Q337.37-21 340.12-17.05 342.87-13.1 343.67-12L343.67-12 344.22-12ZM363.52 0.45Q361.42 0.45 359.67 0.1 357.92-0.25 356.89-0.63 355.87-1 355.62-1.15L355.62-1.15 355.17-1.8Q355.32-2.45 355.64-4.5 355.97-6.55 356.02-8.25L356.02-8.25 360.62-8.6Q360.62-6.25 361.54-5.25 362.47-4.25 364.52-4.25L364.52-4.25Q366.07-4.25 366.94-4.78 367.82-5.3 367.82-6.2L367.82-6.2Q367.82-7.25 366.74-7.95 365.67-8.65 363.32-9.6L363.32-9.6 361.87-10.2Q358.87-11.5 357.17-13.13 355.47-14.75 355.47-17.4L355.47-17.4Q355.47-19.8 356.99-21.65 358.52-23.5 361.27-24.53 364.02-25.55 367.62-25.55L367.62-25.55Q369.57-25.55 371.27-25.33 372.97-25.1 373.97-24.85 374.97-24.6 375.22-24.5L375.22-24.5 375.67-23.75Q375.52-23.2 375.14-21.2 374.77-19.2 374.57-17L374.57-17 370.37-16.7 369.87-17 369.92-17.8Q369.92-20.65 366.57-20.65L366.57-20.65Q365.22-20.65 364.34-20.1 363.47-19.55 363.47-18.65L363.47-18.65Q363.47-17.5 364.69-16.8 365.92-16.1 368.77-14.95L368.77-14.95Q372.12-13.55 374.02-11.98 375.92-10.4 375.92-7.6L375.92-7.6Q375.92-3.9 372.59-1.73 369.27 0.45 363.52 0.45L363.52 0.45Z" opacity="1" transform="matrix(1,0,0,1,0,0)" fill="#ffffff" class="slogan-text-1" data-fill-palette-color="secondary" id="text-1"></path></svg></g></svg></g></svg></g></svg></g></svg></g></svg></g></svg></g><path d="M278.998 41.215L278.998 0 31.798 0 31.798 247.2 278.998 247.2 278.998 205.985 269.116 205.985 269.116 237.318 41.679 237.318 41.679 9.882 269.116 9.882 269.116 41.215Z" fill="#ffffff" stroke="transparent" data-fill-palette-color="primary"></path></svg></g><defs></defs></svg><rect width="395.52" height="247.2" fill="none" stroke="none" visibility="hidden"></rect></g></svg></g></svg>